STARTFONT 2.1
COMMENT
COMMENT Converted from OpenType font "Q:\font stuff\winfont\AndroidClock.ttf" by "otf2bdf 3.0".
COMMENT
FONT -FreeType-AndroidClock-Medium-R-Normal--32-320-72-72-P-123-ISO10646-1
SIZE 32 72 72
FONTBOUNDINGBOX 31 39 0 -2
STARTPROPERTIES 19
FOUNDRY "FreeType"
FAMILY_NAME "AndroidClock"
WEIGHT_NAME "Medium"
SLANT "R"
SETWIDTH_NAME "Normal"
ADD_STYLE_NAME ""
PIXEL_SIZE 30
POINT_SIZE 320
RESOLUTION_X 72
RESOLUTION_Y 72
SPACING "P"
AVERAGE_WIDTH 123
CHARSET_REGISTRY "ISO10646"
CHARSET_ENCODING "1"
FONT_ASCENT 33
FONT_DESCENT 6
COPYRIGHT "Font data copyright Google 2012"
_OTF_FONTFILE "Q:\font stuff\winfont\AndroidClock.ttf"
_OTF_PSNAME "AndroidClock-Regular100000"
ENDPROPERTIES
CHARS 13
STARTCHAR 000D
ENCODING 13
SWIDTH 500 0
DWIDTH 16 0
BBX 0 0 0 0
BITMAP
ENDCHAR
STARTCHAR 0020
ENCODING 32
SWIDTH 500 0
DWIDTH 16 0
BBX 0 0 0 0
BITMAP
ENDCHAR
STARTCHAR 0030
ENCODING 48
SWIDTH 562 0
DWIDTH 18 0
BBX 14 23 2 0
BITMAP
0FC0
3020
2010
4008
8008
8008
8008
8004
8004
8004
8004
8004
8004
8004
8004
8004
8004
8008
8008
4008
4010
2020
1FC0
ENDCHAR
STARTCHAR 0031
ENCODING 49
SWIDTH 343 0
DWIDTH 11 0
BBX 7 23 1 0
BITMAP
06
3A
C2
02
02
02
02
02
02
02
02
02
02
02
02
02
02
02
02
02
02
02
02
ENDCHAR
STARTCHAR 0032
ENCODING 50
SWIDTH 562 0
DWIDTH 18 0
BBX 14 23 2 0
BITMAP
0FC0
3020
4010
4008
8008
8008
8008
0008
0010
0010
0020
0020
0040
0080
0100
0200
0400
0C00
0800
1000
2000
4000
FFFC
ENDCHAR
STARTCHAR 0033
ENCODING 51
SWIDTH 562 0
DWIDTH 18 0
BBX 14 23 2 0
BITMAP
0FC0
3020
4010
4008
8008
8008
0008
0008
0008
0010
0060
07C0
0030
0008
0008
0004
0004
0004
8004
8008
4008
2010
1FE0
ENDCHAR
STARTCHAR 0034
ENCODING 52
SWIDTH 562 0
DWIDTH 18 0
BBX 16 23 1 0
BITMAP
0010
0030
0030
0050
0090
0090
0110
0210
0210
0410
0810
0810
1010
2010
6010
4010
FFFF
0010
0010
0010
0010
0010
0010
ENDCHAR
STARTCHAR 0035
ENCODING 53
SWIDTH 562 0
DWIDTH 18 0
BBX 13 23 3 0
BITMAP
7FF0
4000
4000
4000
4000
4000
4000
4000
8000
9FC0
E020
C010
8010
0008
0008
0008
0008
8008
8008
8010
4010
6020
1FC0
ENDCHAR
STARTCHAR 0036
ENCODING 54
SWIDTH 562 0
DWIDTH 18 0
BBX 13 23 3 0
BITMAP
0FE0
1010
2000
4000
8000
8000
8000
8000
8F80
B060
C010
8010
8008
8008
8008
8008
8008
8008
8008
4010
4010
2020
1FC0
ENDCHAR
STARTCHAR 0037
ENCODING 55
SWIDTH 562 0
DWIDTH 18 0
BBX 15 23 1 0
BITMAP
FFFE
0002
0004
0008
0008
0010
0020
0020
0040
0040
0080
0080
0100
0100
0200
0200
0200
0200
0400
0400
0400
0400
0400
ENDCHAR
STARTCHAR 0038
ENCODING 56
SWIDTH 562 0
DWIDTH 18 0
BBX 15 23 1 0
BITMAP
07E0
1810
2008
2004
4004
4004
4004
4004
2004
3008
0830
07E0
1818
2004
4004
4002
8002
8002
4002
4002
6004
3008
0FF0
ENDCHAR
STARTCHAR 0039
ENCODING 57
SWIDTH 562 0
DWIDTH 18 0
BBX 14 23 2 0
BITMAP
0FC0
1020
2010
4008
C008
8008
8004
8004
8004
8004
8004
400C
4014
2034
1864
0784
0004
0008
0008
0008
0010
0020
3FC0
ENDCHAR
STARTCHAR 003A
ENCODING 58
SWIDTH 187 0
DWIDTH 6 0
BBX 2 15 2 3
BITMAP
C0
C0
00
00
00
00
00
00
00
00
00
00
00
C0
C0
ENDCHAR
ENDFONT
