STARTFONT 2.1
COMMENT
COMMENT Converted from OpenType font "Q:\font stuff\winfont\Clockopia.ttf" by "otf2bdf 3.0".
COMMENT
FONT -FreeType-Clockopia-Medium-R-Normal--91-910-72-72-P-384-ISO10646-1
SIZE 91 72 72
FONTBOUNDINGBOX 65 64 0 -1
STARTPROPERTIES 19
FOUNDRY "FreeType"
FAMILY_NAME "Clockopia"
WEIGHT_NAME "Medium"
SLANT "R"
SETWIDTH_NAME "Normal"
ADD_STYLE_NAME ""
PIXEL_SIZE 64
POINT_SIZE 910
RESOLUTION_X 72
RESOLUTION_Y 72
SPACING "P"
AVERAGE_WIDTH 384
CHARSET_REGISTRY "ISO10646"
CHARSET_ENCODING "1"
FONT_ASCENT 91
FONT_DESCENT 0
COPYRIGHT "Digitized data copyright © 2009 Google Inc."
_OTF_FONTFILE "Q:\font stuff\winfont\Clockopia.ttf"
_OTF_PSNAME "Clockopia"
ENDPROPERTIES
CHARS 15
STARTCHAR 0020
ENCODING 32
SWIDTH 285 0
DWIDTH 26 0
BBX 0 0 0 0
BITMAP
ENDCHAR
STARTCHAR 0030
ENCODING 48
SWIDTH 604 0
DWIDTH 55 0
BBX 45 63 5 0
BITMAP
007FFFFFE000
03FFFFFFFC00
07FFFFFFFF00
0FFFFFFFFF80
1FFFFFFFFFC0
3FFFFFFFFFE0
7FFFFFFFFFE0
7FFFFFFFFFF0
7FF000007FF0
FFC000003FF0
FF8000001FF0
FF8000000FF0
FF8000000FF8
FF0000000FF8
FF0000000FF8
FF0000000FF8
FF0000000FF8
FF0000000FF8
FF0000000FF8
FF0000000FF8
FF0000000FF8
FF0000000FF8
FF0000000FF8
FF0000000FF8
FF0000000FF8
FF0000000FF8
FF0000000FF8
FF0000000FF8
FF0000000FF8
FF0000000FF8
FF0000000FF8
FF0000000FF8
FF0000000FF8
FF0000000FF8
FF0000000FF8
FF0000000FF8
FF0000000FF8
FF0000000FF8
FF0000000FF8
FF0000000FF8
FF0000000FF8
FF0000000FF8
FF0000000FF8
FF0000000FF8
FF0000000FF8
FF0000000FF8
FF0000000FF8
FF0000000FF8
FF0000000FF8
FF0000000FF8
FF8000000FF8
FF8000000FF0
FF8000001FF0
FFC000003FF0
7FF000007FF0
7FFFFFFFFFF0
7FFFFFFFFFE0
3FFFFFFFFFE0
1FFFFFFFFFC0
0FFFFFFFFF80
07FFFFFFFF00
03FFFFFFFC00
007FFFFFE000
ENDCHAR
STARTCHAR 0031
ENCODING 49
SWIDTH 318 0
DWIDTH 29 0
BBX 17 63 2 0
BITMAP
01FC00
0FFF00
1FFF00
7FFF80
7FFF80
FFFF80
FFFF80
FFFF80
01FF80
00FF80
007F80
007F80
007F80
007F80
007F80
007F80
007F80
007F80
007F80
007F80
007F80
007F80
007F80
007F80
007F80
007F80
007F80
007F80
007F80
007F80
007F80
007F80
007F80
007F80
007F80
007F80
007F80
007F80
007F80
007F80
007F80
007F80
007F80
007F80
007F80
007F80
007F80
007F80
007F80
007F80
007F80
007F80
007F80
007F80
007F80
007F80
007F80
007F80
007F80
007F80
003F80
003F00
001E00
ENDCHAR
STARTCHAR 0032
ENCODING 50
SWIDTH 604 0
DWIDTH 55 0
BBX 44 63 5 0
BITMAP
001FFFFE0000
00FFFFFFE000
03FFFFFFF800
07FFFFFFFE00
0FFFFFFFFF00
1FFFFFFFFF80
1FFFFFFFFF80
0FFFFFFFFFC0
00000003FFC0
00000000FFE0
000000007FE0
000000003FE0
000000003FE0
000000001FF0
000000001FF0
000000001FF0
000000001FF0
000000001FF0
000000001FF0
000000001FF0
000000001FF0
000000001FE0
000000003FE0
000000003FE0
000000007FE0
000000007FE0
00000001FFC0
00000007FFC0
0007FFFFFF80
003FFFFFFF80
01FFFFFFFF00
03FFFFFFFE00
07FFFFFFFC00
0FFFFFFFF800
1FFFFFFFE000
3FFFFFFF0000
3FFE00000000
7FF000000000
7FE000000000
7FC000000000
7F8000000000
FF8000000000
FF8000000000
FF8000000000
FF0000000000
FF0000000000
FF0000000000
FF0000000000
FF0000000000
FF0000000000
FF8000000000
FF8000000000
FF8000000000
FFC000000000
FFE000000000
FFFFFFFFFFE0
FFFFFFFFFFE0
FFFFFFFFFFE0
FFFFFFFFFFE0
FFFFFFFFFFC0
7FFFFFFFFF80
3FFFFFFFFF00
1FFFFFFFF800
ENDCHAR
STARTCHAR 0033
ENCODING 51
SWIDTH 604 0
DWIDTH 55 0
BBX 42 63 6 0
BITMAP
00FFFFFE0000
07FFFFFFC000
1FFFFFFFF000
3FFFFFFFF800
7FFFFFFFFC00
FFFFFFFFFE00
FFFFFFFFFF00
7FFFFFFFFF00
00000007FF80
00000001FF80
00000000FF80
00000000FF80
000000007F80
000000007F80
000000007FC0
000000007FC0
000000007FC0
000000007FC0
000000007FC0
000000007FC0
000000007F80
000000007F80
000000007F80
00000000FF80
00000000FF80
00000001FF00
00000007FF00
00FFFFFFFE00
01FFFFFFFC00
03FFFFFFF800
03FFFFFFF000
03FFFFFFF800
03FFFFFFFC00
01FFFFFFFE00
00FFFFFFFF00
00000007FF00
00000001FF80
00000000FF80
00000000FF80
000000007F80
000000007FC0
000000007FC0
000000007FC0
000000007FC0
000000007FC0
000000007FC0
000000007FC0
000000007FC0
000000007FC0
000000007FC0
000000007F80
00000000FF80
00000000FF80
00000001FF80
00000007FF80
FFFFFFFFFF00
FFFFFFFFFF00
FFFFFFFFFE00
7FFFFFFFFC00
7FFFFFFFF800
1FFFFFFFF000
0FFFFFFFC000
01FFFFFE0000
ENDCHAR
STARTCHAR 0034
ENCODING 52
SWIDTH 604 0
DWIDTH 55 0
BBX 43 63 5 0
BITMAP
0E0000000780
3F0000000FC0
3F0000000FE0
7F0000001FE0
7F0000001FE0
FF0000001FE0
FF0000001FE0
FF0000001FE0
FF0000001FE0
FF0000001FE0
FF0000001FE0
FF0000001FE0
FF0000001FE0
FF0000001FE0
FF0000001FE0
FF0000001FE0
FF0000001FE0
FF0000001FE0
FF0000001FE0
FF0000001FE0
FF0000001FE0
FF0000001FE0
FF0000001FE0
FF0000001FE0
FF0000001FE0
FF8000001FE0
FF8000001FE0
FF8000001FE0
FFC000003FE0
7FE000003FE0
7FF80000FFE0
7FFFFFFFFFE0
3FFFFFFFFFE0
3FFFFFFFFFE0
1FFFFFFFFFE0
0FFFFFFFFFE0
03FFFFFFFFE0
01FFFFFFFFE0
001FFFFFFFE0
00000000FFE0
000000003FE0
000000003FE0
000000001FE0
000000001FE0
000000001FE0
000000001FE0
000000001FE0
000000001FE0
000000001FE0
000000001FE0
000000001FE0
000000001FE0
000000001FE0
000000001FE0
000000001FE0
000000001FE0
000000001FE0
000000001FE0
000000001FE0
000000001FC0
000000001FC0
000000000F80
000000000F00
ENDCHAR
STARTCHAR 0035
ENCODING 53
SWIDTH 604 0
DWIDTH 55 0
BBX 44 63 6 0
BITMAP
0FFFFFFFF000
1FFFFFFFFC00
3FFFFFFFFF00
7FFFFFFFFF80
7FFFFFFFFFC0
7FFFFFFFFFC0
7FFFFFFFFFC0
7FFFFFFFFFC0
7FF800000000
7FE000000000
7FC000000000
7FC000000000
7FC000000000
7F8000000000
7F8000000000
7F8000000000
7F8000000000
7F8000000000
7F8000000000
7F8000000000
7FC000000000
7FC000000000
7FC000000000
7FE000000000
7FF000000000
7FFFFFFE0000
7FFFFFFFE000
7FFFFFFFF800
7FFFFFFFFC00
7FFFFFFFFE00
3FFFFFFFFF00
3FFFFFFFFF80
0FFFFFFFFFC0
00000007FFC0
00000001FFC0
000000007FE0
000000007FE0
000000003FE0
000000003FE0
000000001FF0
000000001FF0
000000001FF0
000000001FF0
000000001FF0
000000001FF0
000000001FF0
000000001FF0
000000001FE0
000000003FE0
000000003FE0
000000003FE0
000000007FE0
00000000FFC0
00000001FFC0
00000007FF80
FFFFFFFFFF80
FFFFFFFFFF00
FFFFFFFFFF00
7FFFFFFFFE00
3FFFFFFFF800
1FFFFFFFF000
07FFFFFFC000
00FFFFFC0000
ENDCHAR
STARTCHAR 0036
ENCODING 54
SWIDTH 604 0
DWIDTH 55 0
BBX 44 63 6 0
BITMAP
003FFFFFC000
01FFFFFFF800
07FFFFFFFE00
0FFFFFFFFF00
1FFFFFFFFF80
1FFFFFFFFFC0
3FFFFFFFFFC0
7FFFFFFFFF80
7FF800000000
7FE000000000
7FC000000000
FF8000000000
FF8000000000
FF8000000000
FF8000000000
FF0000000000
FF0000000000
FF0000000000
FF8000000000
FF8000000000
FF8000000000
FFC000000000
FFE000000000
FFF000000000
FFFFFFFF8000
FFFFFFFFF000
FFFFFFFFFC00
FFFFFFFFFF00
FFFFFFFFFF80
FFFFFFFFFF80
FFFFFFFFFFC0
FFFFFFFFFFC0
FFF00001FFE0
FFC000007FE0
FF8000003FE0
FF8000003FE0
FF8000001FE0
FF0000001FF0
FF0000001FF0
FF0000001FF0
FF0000001FF0
FF0000001FF0
FF0000001FF0
FF0000001FF0
FF0000001FF0
FF0000001FF0
FF0000001FF0
FF0000001FF0
FF0000001FF0
FF8000001FE0
FF8000001FE0
FF8000003FE0
FFC000003FE0
7FE000007FE0
7FF80001FFE0
7FFFFFFFFFC0
3FFFFFFFFFC0
3FFFFFFFFF80
1FFFFFFFFF00
0FFFFFFFFE00
07FFFFFFFC00
01FFFFFFF000
003FFFFF8000
ENDCHAR
STARTCHAR 0037
ENCODING 55
SWIDTH 604 0
DWIDTH 55 0
BBX 46 63 4 0
BITMAP
03FFFFFFFFF0
0FFFFFFFFFFC
3FFFFFFFFFFC
7FFFFFFFFFFC
FFFFFFFFFFFC
FFFFFFFFFFFC
FFFFFFFFFFF8
FFFFFFFFFFF8
000000007FF8
000000003FF0
000000003FF0
000000003FE0
000000007FE0
000000007FC0
00000000FFC0
00000000FF80
00000001FF00
00000003FF00
00000003FE00
00000007FE00
00000007FC00
0000000FFC00
0000000FF800
0000001FF800
0000001FF000
0000003FF000
0000003FE000
0000007FE000
0000007FC000
000000FFC000
000000FF8000
000001FF8000
000001FF0000
000003FF0000
000003FE0000
000007FE0000
000007FC0000
00000FFC0000
00000FF80000
00001FF80000
00001FF00000
00003FF00000
00003FE00000
00007FE00000
00007FC00000
0000FFC00000
0000FF800000
0001FF800000
0001FF000000
0003FF000000
0003FE000000
0007FE000000
000FFC000000
000FFC000000
001FF8000000
001FF8000000
001FF0000000
003FF0000000
003FE0000000
003FE0000000
003FC0000000
001F80000000
000F00000000
ENDCHAR
STARTCHAR 0038
ENCODING 56
SWIDTH 604 0
DWIDTH 55 0
BBX 45 63 5 0
BITMAP
001FFFFF8000
00FFFFFFF800
03FFFFFFFC00
07FFFFFFFF00
0FFFFFFFFF80
1FFFFFFFFFC0
3FFFFFFFFFC0
7FFFFFFFFFE0
7FF80000FFE0
7FE000003FF0
FFC000001FF0
FF8000001FF0
FF8000000FF0
FF8000000FF0
FF8000000FF0
FF8000000FF0
FF8000000FF0
FF8000000FF0
FF8000000FF0
FF8000000FF0
FF8000000FF0
FF8000000FF0
FF8000000FF0
7F8000001FF0
7FC000001FF0
7FE000003FE0
3FF80000FFE0
1FFFFFFFFFC0
1FFFFFFFFF80
07FFFFFFFF00
07FFFFFFFE00
07FFFFFFFF00
0FFFFFFFFF80
1FFFFFFFFFC0
3FFFFFFFFFE0
7FF80000FFE0
7FE000003FF0
FFC000001FF0
FF8000001FF0
FF8000000FF0
FF8000000FF8
FF8000000FF8
FF8000000FF8
FF8000000FF8
FF8000000FF8
FF8000000FF8
FF8000000FF8
FF8000000FF8
FF8000000FF8
FF8000000FF8
FF8000000FF0
FF8000001FF0
FFC000001FF0
7FE000003FF0
7FF80000FFE0
7FFFFFFFFFE0
3FFFFFFFFFE0
1FFFFFFFFFC0
0FFFFFFFFF80
07FFFFFFFF00
03FFFFFFFE00
00FFFFFFF800
001FFFFFC000
ENDCHAR
STARTCHAR 0039
ENCODING 57
SWIDTH 604 0
DWIDTH 55 0
BBX 44 63 5 0
BITMAP
001FFFFFC000
01FFFFFFF800
03FFFFFFFE00
0FFFFFFFFF00
1FFFFFFFFF80
3FFFFFFFFFC0
3FFFFFFFFFE0
7FFFFFFFFFE0
7FF80000FFE0
7FE000003FF0
FFC000001FF0
FF8000001FF0
FF8000000FF0
FF8000000FF0
FF8000000FF0
FF8000000FF0
FF8000000FF0
FF8000000FF0
FF8000000FF0
FF8000000FF0
FF8000000FF0
FF8000000FF0
FF8000000FF0
FF8000000FF0
FF8000000FF0
FF8000000FF0
FF8000000FF0
FF8000000FF0
FFC000001FF0
7FE000003FF0
7FF000007FF0
7FFFFFFFFFF0
3FFFFFFFFFF0
3FFFFFFFFFF0
1FFFFFFFFFF0
0FFFFFFFFFF0
07FFFFFFFFF0
01FFFFFFFFF0
003FFFFFFFF0
00000000FFF0
000000003FF0
000000001FF0
000000001FF0
000000000FF0
000000000FF0
000000000FF0
000000000FF0
000000000FF0
000000000FF0
000000000FF0
000000000FF0
000000001FF0
000000001FF0
000000003FF0
00000000FFE0
3FFFFFFFFFE0
3FFFFFFFFFC0
3FFFFFFFFFC0
3FFFFFFFFF80
1FFFFFFFFF00
0FFFFFFFFE00
03FFFFFFF800
007FFFFFC000
ENDCHAR
STARTCHAR 003A
ENCODING 58
SWIDTH 219 0
DWIDTH 20 0
BBX 11 40 5 0
BITMAP
1F00
7F80
7FC0
FFE0
FFE0
FFE0
FFE0
FFE0
7FC0
7FC0
1F00
0000
0000
0000
0000
0000
0000
0000
0000
0000
0000
0000
0000
0000
0000
0000
0000
0000
0000
1F00
7F80
7FC0
FFE0
FFE0
FFE0
FFE0
FFE0
7FC0
7FC0
1F00
ENDCHAR
STARTCHAR 0041
ENCODING 65
SWIDTH 626 0
DWIDTH 57 0
BBX 44 64 7 -1
BITMAP
001FFFFF8000
00FFFFFFF000
03FFFFFFFC00
07FFFFFFFE00
0FFFFFFFFF00
1FFFFFFFFF80
3FFFFFFFFFC0
3FFFFFFFFFC0
7FF80001FFC0
7FE000007FE0
7FC000003FE0
FF8000003FE0
FF8000001FE0
FF8000001FF0
FF8000001FF0
FF8000001FF0
FF8000001FF0
FF8000001FF0
FF8000001FF0
FF8000001FF0
FF8000001FF0
FF8000001FF0
FF8000001FF0
FF8000001FF0
FF8000001FF0
FF8000001FF0
FF8000001FF0
FF8000003FF0
FFC000003FF0
FFF00000FFF0
FFFFFFFFFFF0
FFFFFFFFFFF0
FFFFFFFFFFF0
FFFFFFFFFFF0
FFFFFFFFFFF0
FFFFFFFFFFF0
FFFFFFFFFFF0
FFFFFFFFFFF0
FFF00000FFF0
FFC000003FF0
FF8000003FF0
FF8000001FF0
FF8000001FF0
FF8000001FF0
FF8000001FF0
FF8000001FF0
FF8000001FF0
FF8000001FF0
FF8000001FF0
FF8000001FF0
FF8000001FF0
FF8000001FF0
FF8000001FF0
FF8000001FF0
FF8000001FF0
FF8000001FF0
FF8000001FF0
FF8000001FF0
FF8000001FF0
FF8000001FF0
FF0000001FE0
7F0000000FE0
7F0000000FE0
3C0000000780
ENDCHAR
STARTCHAR 004D
ENCODING 77
SWIDTH 780 0
DWIDTH 71 0
BBX 58 64 7 -1
BITMAP
3C00000000000E00
7E00000000003F00
7F00000000007F80
FF80000000007F80
FF8000000000FF80
FFC000000000FFC0
FFC000000001FFC0
FFE000000001FFC0
FFE000000003FFC0
FFF000000003FFC0
FFF000000007FFC0
FFF80000000FFFC0
FFFC0000000FFFC0
FFFC0000001FFFC0
FFFE0000001FFFC0
FFFE0000003FFFC0
FFFF0000003FFFC0
FFFF0000007FFFC0
FFFF8000007FFFC0
FFFF800000FFFFC0
FF7FC00000FFFFC0
FF7FC00001FF7FC0
FF3FE00001FF7FC0
FF3FE00003FE7FC0
FF1FF00003FE7FC0
FF1FF00007FC7FC0
FF0FF80007FC7FC0
FF0FF8000FF87FC0
FF07FC000FF87FC0
FF07FC001FF07FC0
FF03FE001FF07FC0
FF03FE003FE07FC0
FF01FF003FE07FC0
FF01FF007FC07FC0
FF00FF807F807FC0
FF00FFC0FF807FC0
FF007FC1FF007FC0
FF007FE1FF007FC0
FF003FE3FE007FC0
FF003FFFFE007FC0
FF001FFFFC007FC0
FF000FFFFC007FC0
FF000FFFF8007FC0
FF0007FFF8007FC0
FF0007FFF0007FC0
FF0003FFF0007FC0
FF0003FFE0007FC0
FF0001FFE0007FC0
FF0001FFC0007FC0
FF0000FFC0007FC0
FF0000FF80007FC0
FF00007F00007FC0
FF00003F00007FC0
FF00001C00007FC0
FF00000000007FC0
FF00000000007FC0
FF00000000007FC0
FF00000000007FC0
FF00000000007FC0
FF00000000007F80
FF00000000007F80
7F00000000003F80
7E00000000003F00
3C00000000001E00
ENDCHAR
STARTCHAR 0050
ENCODING 80
SWIDTH 571 0
DWIDTH 52 0
BBX 42 64 7 -1
BITMAP
1FFFFFFE0000
3FFFFFFFC000
7FFFFFFFF000
FFFFFFFFF800
FFFFFFFFFC00
FFFFFFFFFE00
FFFFFFFFFF00
FFFFFFFFFF00
FFF00007FF80
FFC00001FF80
FF800000FF80
FF800000FF80
FF8000007FC0
FF8000007FC0
FF8000007FC0
FF8000007FC0
FF8000007FC0
FF8000007FC0
FF8000007FC0
FF8000007FC0
FF8000007FC0
FF8000007FC0
FF8000007FC0
FF8000007FC0
FF8000007FC0
FF8000007FC0
FF800000FF80
FF800000FF80
FFC00001FF80
FFE00007FF80
FFFFFFFFFF00
FFFFFFFFFF00
FFFFFFFFFE00
FFFFFFFFFC00
FFFFFFFFF800
FFFFFFFFF000
FFFFFFFFC000
FFFFFFFF0000
FFF000000000
FFC000000000
FF8000000000
FF8000000000
FF8000000000
FF8000000000
FF8000000000
FF8000000000
FF8000000000
FF8000000000
FF8000000000
FF8000000000
FF8000000000
FF8000000000
FF8000000000
FF8000000000
FF8000000000
FF8000000000
FF8000000000
FF8000000000
FF8000000000
FF0000000000
FF0000000000
7F0000000000
7E0000000000
3C0000000000
ENDCHAR
ENDFONT
